<svg width="14" height="15" viewBox="0 0 14 15" fill="none" xmlns="http://www.w3.org/2000/svg">
<g id="Person">
<g id="Vector">
<path fill-rule="evenodd" clip-rule="evenodd" d="M7.00055 1.66732C5.71188 1.66732 4.66721 2.71199 4.66721 4.00065C4.66721 5.28932 5.71188 6.33398 7.00055 6.33398C8.28921 6.33398 9.33388 5.28932 9.33388 4.00065C9.33388 2.71199 8.28921 1.66732 7.00055 1.66732ZM3.33388 4.00065C3.33388 1.97561 4.9755 0.333984 7.00055 0.333984C9.02559 0.333984 10.6672 1.97561 10.6672 4.00065C10.6672 6.0257 9.02559 7.66732 7.00055 7.66732C4.9755 7.66732 3.33388 6.0257 3.33388 4.00065Z" fill="#787A80"/>
<path fill-rule="evenodd" clip-rule="evenodd" d="M3.06992 9.66732C2.60771 9.66732 2.24643 9.89238 2.09979 10.2157C1.89681 10.6633 1.71301 11.1961 1.66964 11.7014C1.65025 11.9273 1.74444 12.0938 1.87423 12.1744C2.56033 12.6006 4.15014 13.334 7.00055 13.334C9.85095 13.334 11.4408 12.6006 12.1269 12.1744C12.2567 12.0938 12.3508 11.9273 12.3315 11.7014C12.2881 11.1961 12.1043 10.6633 11.9013 10.2157C11.7547 9.89238 11.3934 9.66732 10.9312 9.66732H3.06992ZM0.885499 9.66502C1.2908 8.77136 2.19582 8.33398 3.06992 8.33398H10.9312C11.8053 8.33398 12.7103 8.77136 13.1156 9.66502C13.3484 10.1783 13.5982 10.8683 13.6599 11.5874C13.7161 12.2422 13.4439 12.9259 12.8304 13.307C11.9281 13.8676 10.0936 14.6673 7.00055 14.6673C3.90748 14.6673 2.07301 13.8676 1.17066 13.307C0.557149 12.9259 0.284988 12.2422 0.341191 11.5874C0.40291 10.8683 0.652708 10.1783 0.885499 9.66502Z" fill="#787A80"/>
</g>
</g>
</svg>
