<svg width="36" height="36" viewBox="0 0 36 36" fill="none" xmlns="http://www.w3.org/2000/svg">
<path d="M35.9356 6.47816C35.8146 6.1862 35.5299 5.99597 35.2138 5.99597H31.1094L31.5508 5.55456C31.8558 5.24956 31.8558 4.75488 31.5508 4.4498C31.2457 4.1448 30.7512 4.1448 30.446 4.4498L29.999 4.89683V0.781214C29.999 0.465355 29.8086 0.180433 29.5168 0.0594962C29.2249 -0.0614411 28.8889 0.00543375 28.6656 0.228793L21.7793 7.11503C21.6328 7.26151 21.5505 7.46019 21.5505 7.66737V10.3771C19.2973 8.90323 16.6997 8.12948 13.9668 8.12948C6.29999 8.12948 0.0625 14.367 0.0625 22.0338C0.0625 29.7005 6.29999 35.938 13.9668 35.938C16.5115 35.938 19.001 35.244 21.1662 33.9312C21.5351 33.7076 21.6528 33.2272 21.4292 32.8583C21.2056 32.4894 20.7252 32.3715 20.3563 32.5953C18.4353 33.7601 16.2258 34.3757 13.9668 34.3757C7.16139 34.3757 1.62476 28.8391 1.62476 22.0337C1.62476 15.2282 7.16139 9.69167 13.9668 9.69167C16.7457 9.69167 19.3666 10.5924 21.5505 12.2963V13.3452L20.127 14.7687C18.4646 13.3569 16.3136 12.5037 13.9668 12.5037C8.71194 12.5037 4.43687 16.7788 4.43687 22.0336C4.43687 27.2884 8.71194 31.5635 13.9668 31.5635C19.2216 31.5635 23.4967 27.2884 23.4967 22.0336C23.4967 19.6868 22.6436 17.5359 21.2317 15.8734L22.6608 14.4442H23.7C25.384 16.6024 26.3087 19.2872 26.3087 22.0336C26.3087 24.3365 25.6705 26.5827 24.4632 28.5291C24.2357 28.8957 24.3486 29.3773 24.7153 29.6047C24.8435 29.6842 24.9857 29.7221 25.1263 29.7221C25.3877 29.7221 25.643 29.5909 25.7909 29.3526C27.1518 27.1587 27.871 24.6278 27.871 22.0336C27.871 19.3354 27.0785 16.6899 25.6172 14.4442H28.3274C28.5346 14.4442 28.7332 14.3619 28.8798 14.2154L35.766 7.32917C35.9896 7.10605 36.0564 6.77003 35.9356 6.47816ZM21.9346 22.0338C21.9346 26.4271 18.3603 30.0014 13.9669 30.0014C9.57358 30.0014 5.99929 26.4271 5.99929 22.0338C5.99929 17.6404 9.57358 14.0661 13.9669 14.0661C15.8829 14.0661 17.6429 14.746 19.0189 15.8771L17.2398 17.6562C16.3268 16.9717 15.1934 16.5658 13.967 16.5658C10.9519 16.5658 8.49905 19.0188 8.49905 22.0338C8.49905 25.0488 10.952 27.5017 13.967 27.5017C16.9821 27.5017 19.435 25.0487 19.435 22.0338C19.435 20.8074 19.029 19.674 18.3446 18.7609L20.1236 16.9818C21.2546 18.3577 21.9346 20.1177 21.9346 22.0338ZM13.4146 22.5862C13.5672 22.7388 13.767 22.815 13.9669 22.815C14.1668 22.815 14.3667 22.7388 14.5193 22.5862L17.2239 19.8816C17.6333 20.4991 17.8726 21.2389 17.8726 22.0338C17.8726 24.1873 16.1205 25.9394 13.9669 25.9394C11.8133 25.9394 10.0612 24.1873 10.0612 22.0338C10.0612 19.8802 11.8133 18.1281 13.9669 18.1281C14.7618 18.1281 15.5015 18.3674 16.1192 18.7768L13.4146 21.4814C13.1095 21.7864 13.1095 22.281 13.4146 22.5862ZM23.1129 11.783V7.99097L28.4368 2.66707V6.45909L23.1129 11.783ZM28.0041 12.8821H24.2233L29.5472 7.55823H33.328L28.0041 12.8821Z" fill="#7772F1"/>
</svg>
