<svg width="40" height="34" viewBox="0 0 40 34" fill="none" xmlns="http://www.w3.org/2000/svg">
<path d="M35.7812 11.6767V3.72461C35.7812 2.1307 34.4845 0.833984 32.8906 0.833984C32.2216 0.833984 31.6053 1.06312 31.1149 1.44617L22.7551 4.5775C22.351 4.72883 22.1462 5.17906 22.2975 5.58313C22.415 5.89695 22.7128 6.09055 23.0292 6.09055C23.1203 6.09055 23.2129 6.07453 23.3031 6.04062L30.0073 3.52938C30.003 3.59391 29.9999 3.65883 29.9999 3.72445V12.787C29.9999 13.2184 30.3497 13.5682 30.7812 13.5682C31.2127 13.5682 31.5624 13.2184 31.5624 12.787V3.72445C31.5624 2.99211 32.1582 2.39633 32.8905 2.39633C33.6229 2.39633 34.2187 2.99211 34.2187 3.72445V29.5057C34.2187 30.238 33.6229 30.8338 32.8905 30.8338C32.1582 30.8338 31.5624 30.238 31.5624 29.5057V20.0526C31.5624 19.6212 31.2127 19.2713 30.7812 19.2713C30.3497 19.2713 29.9999 19.6212 29.9999 20.0526V29.5057C29.9999 29.5713 30.0029 29.6362 30.0073 29.7008L10.3125 22.3237V10.9069L18.2425 7.93648C18.6466 7.78516 18.8514 7.33492 18.7001 6.93086C18.5487 6.5268 18.0984 6.32156 17.6944 6.47336L9.38977 9.58406H4.60938C2.06773 9.58406 0 11.6518 0 14.1934V19.0372C0 21.5289 1.98766 23.5637 4.46055 23.6428L7.90297 32.6621C8.01852 32.9648 8.30891 33.1648 8.63289 33.1648H13.1641C13.4212 33.1648 13.6618 33.0384 13.8076 32.8267C13.9534 32.615 13.9857 32.3452 13.8941 32.1051L10.8786 24.2043L31.115 31.7845C31.6054 32.1675 32.2216 32.3966 32.8907 32.3966C34.4846 32.3966 35.7813 31.0999 35.7813 29.506V21.5538C38.1684 21.1775 40 19.1065 40 16.6152C40 14.124 38.1684 12.0529 35.7812 11.6767ZM4.60938 22.084C2.9293 22.084 1.5625 20.7172 1.5625 19.0371V14.1934C1.5625 12.5133 2.9293 11.1465 4.60938 11.1465H8.75V22.084H5H4.60938ZM12.0297 31.6022H9.17086V31.6023L6.13445 23.6465H8.99328L12.0297 31.6022ZM35.7812 19.962V13.2683C37.3014 13.6231 38.4375 14.9885 38.4375 16.6152C38.4375 18.2418 37.3014 19.6073 35.7812 19.962Z" fill="#7772F1"/>
</svg>
