<svg width="40" height="33" viewBox="0 0 40 33" fill="none" xmlns="http://www.w3.org/2000/svg">
<g filter="url(#filter0_d_7913_1920)">
<path d="M40 19.554C40 17.9763 38.8913 16.6534 37.4123 16.3212C37.7625 15.7959 37.9671 15.1656 37.9671 14.4883C37.9671 12.661 36.4805 11.1744 34.6531 11.1744H25.9594L27.0966 7.79803C27.5556 6.43545 27.4459 4.98099 26.7879 3.70263C26.1298 2.42435 25.0098 1.48998 23.6344 1.07178L22.2637 0.655135C21.8653 0.533963 21.4431 0.745995 21.3017 1.13678L19.1479 7.08943C18.5366 8.77888 17.331 10.1824 15.7533 11.0415L13.6016 12.2132C13.1388 11.5838 12.3937 11.1744 11.5544 11.1744H0.78125C0.349844 11.1744 0 11.5243 0 11.9557V32.2176C0 32.649 0.349844 32.9988 0.78125 32.9988H11.5544C12.489 32.9988 13.3067 32.4911 13.7478 31.7373L14.8505 32.1698C16.2535 32.72 17.7289 32.9989 19.2357 32.9989H32.8869C34.7142 32.9989 36.2009 31.5122 36.2009 29.6849C36.2009 29.0022 35.9932 28.3672 35.638 27.8393C37.0889 27.4867 38.1697 26.1772 38.1697 24.6194C38.1697 23.9233 37.9534 23.2769 37.5852 22.7429C38.9768 22.35 40 21.0697 40 19.554ZM36.686 21.3054H34.8557H31.2677H28.6505C28.2191 21.3054 27.8692 21.6553 27.8692 22.0867C27.8692 22.5181 28.2191 22.8679 28.6505 22.8679H31.2677H34.8557C35.8215 22.8679 36.6072 23.6537 36.6072 24.6194C36.6072 25.5852 35.8215 26.3709 34.8557 26.3709H32.8869H28.9166H28.6505C28.2191 26.3709 27.8693 26.7208 27.8693 27.1522C27.8693 27.5836 28.2191 27.9334 28.6505 27.9334H28.9166H32.8869C33.8527 27.9334 34.6384 28.7191 34.6384 29.6849C34.6384 30.6507 33.8527 31.4364 32.8869 31.4364H19.2357C17.9249 31.4364 16.6415 31.1937 15.421 30.7151L14.0945 30.1949V22.5301C14.0945 22.0987 13.7447 21.7489 13.3133 21.7489C12.8819 21.7489 12.532 22.0987 12.532 22.5301V30.4586C12.532 30.9976 12.0935 31.4362 11.5544 31.4362H1.5625V12.7369H11.5544C12.0934 12.7369 12.532 13.1754 12.532 13.7145V16.3672C12.532 16.7986 12.8819 17.1485 13.3133 17.1485C13.7447 17.1485 14.0945 16.7986 14.0945 16.3672V13.7239L16.5005 12.4136C18.4139 11.3719 19.8759 9.66982 20.6172 7.62099L22.5187 2.36568L23.1798 2.56662C24.1477 2.86092 24.9357 3.51826 25.3987 4.41771C25.8617 5.31717 25.9388 6.34045 25.6159 7.29912L24.1316 11.7061C24.0513 11.9445 24.0907 12.2069 24.2373 12.4112C24.3841 12.6155 24.6203 12.7367 24.8719 12.7367H34.6531C35.6189 12.7367 36.4046 13.5224 36.4046 14.4882C36.4046 15.454 35.6189 16.2397 34.6531 16.2397H28.6505C28.2191 16.2397 27.8692 16.5895 27.8692 17.0209C27.8692 17.4523 28.2191 17.8022 28.6505 17.8022H31.2632C31.2648 17.8022 31.2662 17.8024 31.2677 17.8024H36.686C37.6518 17.8024 38.4375 18.5881 38.4375 19.5539C38.4375 20.5198 37.6518 21.3054 36.686 21.3054Z" fill="#7772F1"/>
</g>
<defs>
<filter id="filter0_d_7913_1920" x="-4" y="0.621094" width="48" height="40.377" filterUnits="userSpaceOnUse" color-interpolation-filters="sRGB">
<feFlood flood-opacity="0" result="BackgroundImageFix"/>
<feColorMatrix in="SourceAlpha" type="matrix" values="0 0 0 0 0 0 0 0 0 0 0 0 0 0 0 0 0 0 127 0" result="hardAlpha"/>
<feOffset dy="4"/>
<feGaussianBlur stdDeviation="2"/>
<feComposite in2="hardAlpha" operator="out"/>
<feColorMatrix type="matrix" values="0 0 0 0 0 0 0 0 0 0 0 0 0 0 0 0 0 0 0.25 0"/>
<feBlend mode="normal" in2="BackgroundImageFix" result="effect1_dropShadow_7913_1920"/>
<feBlend mode="normal" in="SourceGraphic" in2="effect1_dropShadow_7913_1920" result="shape"/>
</filter>
</defs>
</svg>
